<svg width="121" height="33" viewBox="0 0 121 33" fill="none" xmlns="http://www.w3.org/2000/svg">
<g clip-path="url(#clip0_9_20)">
<path d="M88.437 13.827C89.488 14.93 89.961 16.507 89.961 18.661V27.016H86.178V19.344C86.178 18.188 85.863 17.347 85.39 16.769C84.917 16.191 84.234 15.928 83.341 15.928C82.343 15.928 81.554 16.243 80.976 16.926C80.398 17.609 80.083 18.555 80.083 19.869V27.068H76.195V6.996H80.136V14.037C80.661 13.459 81.292 13.039 82.028 12.776C82.764 12.461 83.552 12.303 84.445 12.303C86.072 12.198 87.439 12.724 88.437 13.827Z" fill="white"/>
<path d="M64.003 20.868H53.441C53.651 21.814 54.072 22.497 54.807 23.075C55.49 23.6 56.383 23.863 57.434 23.863C58.17 23.863 58.8 23.758 59.378 23.495C59.956 23.285 60.481 22.917 60.954 22.392L63.108 24.862C61.794 26.438 59.85 27.279 57.328 27.279C55.752 27.279 54.385 26.964 53.124 26.281C51.915 25.65 50.97 24.705 50.339 23.549C49.656 22.393 49.341 21.079 49.341 19.608C49.341 18.137 49.656 16.823 50.339 15.667C50.97 14.511 51.863 13.565 53.019 12.935C54.175 12.304 55.436 11.937 56.802 11.937C58.168 11.937 59.429 12.252 60.533 12.883C61.636 13.514 62.53 14.407 63.16 15.563C63.791 16.719 64.106 18.085 64.106 19.662C64.055 19.765 64.055 20.133 64.003 20.868ZM54.544 16.087C53.913 16.665 53.546 17.401 53.388 18.347H60.272C60.114 17.401 59.747 16.666 59.116 16.087C58.485 15.508 57.75 15.246 56.857 15.246C55.911 15.246 55.122 15.509 54.544 16.087Z" fill="white"/>
<path d="M105.935 20.868H95.373C95.583 21.814 96.004 22.497 96.739 23.075C97.475 23.6 98.315 23.863 99.366 23.863C100.102 23.863 100.732 23.758 101.31 23.495C101.888 23.285 102.413 22.917 102.886 22.392L105.04 24.862C103.726 26.438 101.782 27.279 99.26 27.279C97.684 27.279 96.317 26.964 95.056 26.281C93.847 25.65 92.902 24.705 92.271 23.549C91.588 22.393 91.273 21.079 91.273 19.608C91.273 18.137 91.588 16.823 92.271 15.667C92.902 14.511 93.795 13.565 94.951 12.935C96.107 12.305 97.368 11.937 98.734 11.937C100.1 11.937 101.361 12.252 102.465 12.883C103.568 13.514 104.462 14.407 105.092 15.563C105.723 16.719 106.038 18.085 106.038 19.662C105.988 19.765 105.988 20.133 105.935 20.868ZM96.477 16.087C95.846 16.665 95.479 17.401 95.321 18.347H102.205C102.047 17.401 101.68 16.666 101.049 16.087C100.418 15.509 99.683 15.246 98.789 15.246C97.843 15.246 97.055 15.509 96.477 16.087Z" fill="white"/>
<path d="M74.617 26.649C73.986 27.017 72.463 27.28 71.779 27.28C69.992 27.28 68.942 26.86 67.996 25.966C67.05 25.073 66.525 23.759 66.525 22.025V15.982H63.898V12.724H66.525V9.46601L70.203 8.99301V12.724H74.144V15.982H70.203V21.972C70.203 22.603 70.308 23.338 70.676 23.601C71.674 24.284 73.198 23.916 73.619 23.443L74.617 26.649Z" fill="white"/>
<path d="M49.132 26.649C48.501 27.017 46.978 27.28 46.294 27.28C44.507 27.28 43.457 26.86 42.511 25.966C41.565 25.073 41.04 23.759 41.04 22.025V15.982H38.413V12.724H41.04V9.46601L44.718 8.99301V12.724H48.659V15.982H44.718V21.972C44.718 22.603 44.823 23.338 45.191 23.601C46.189 24.284 47.713 23.916 48.134 23.443L49.132 26.649Z" fill="white"/>
<path d="M113.817 12.461C115.341 12.041 118.021 12.829 118.756 13.88L117.232 16.928C116.812 16.613 116.496 16.245 115.445 16.035C114.236 15.825 113.185 15.982 112.45 16.666C111.767 17.349 111.241 18.295 111.189 20.187V26.966H107.511V12.566H110.874L111.084 14.458C111.61 13.775 112.346 12.829 113.817 12.461Z" fill="white"/>
<path d="M18.13 15.088V17.663H14.242V15.088C10.143 15.246 7.04303 15.981 7.04303 16.822C7.04303 17.82 11.142 18.609 16.134 18.609C21.126 18.609 25.225 17.821 25.225 16.822C25.276 15.982 22.228 15.246 18.13 15.088Z" fill="white"/>
<path d="M26.379 4.00101H5.938L0 16.56L16.027 32.377L32.316 16.666L26.379 4.00101ZM18.13 19.187V26.123H14.242V19.187C9.618 18.977 6.15 18.084 6.15 17.033C6.15 15.982 9.618 15.036 14.242 14.879V11.463H8.514V7.73201H23.805V11.463H18.13V14.879C22.754 15.089 26.222 15.982 26.222 17.033C26.222 18.084 22.754 18.977 18.13 19.187Z" fill="white"/>
<path d="M94.997 0.152008V1.98701H93.436V6.77401H91.543V1.98701H89.982V0.152008H94.997Z" fill="white"/>
<path d="M98.98 6.764L97.929 4.683H97.456V6.764H95.564V0.141998H98.212C98.941 0.141998 99.536 0.359998 100.01 0.785998C100.483 1.212 100.719 1.77 100.719 2.47C100.719 3.255 100.341 3.908 99.698 4.296L101.004 6.765L98.98 6.764ZM97.457 1.883V3.112H98.176C98.583 3.122 98.829 2.894 98.829 2.507C98.829 2.12 98.583 1.883 98.176 1.883H97.457Z" fill="white"/>
<path d="M102.131 5.932C101.479 5.27 101.148 4.447 101.148 3.463C101.148 2.479 101.479 1.655 102.131 0.993C102.784 0.331 103.616 0 104.61 0C105.831 0 106.937 0.624 107.514 1.608L105.868 2.554C105.65 2.128 105.168 1.854 104.609 1.854C104.146 1.854 103.767 2.005 103.474 2.308C103.181 2.611 103.038 2.998 103.038 3.462C103.038 3.925 103.181 4.313 103.474 4.615C103.767 4.917 104.146 5.069 104.609 5.069C105.177 5.069 105.65 4.804 105.868 4.36L107.514 5.306C106.937 6.299 105.83 6.923 104.61 6.923C103.616 6.925 102.784 6.594 102.131 5.932Z" fill="white"/>
<path d="M109.435 6.774V5.393L111.591 3.056L111.752 2.876C111.903 2.725 111.932 2.696 112.017 2.592C112.14 2.45 112.188 2.346 112.188 2.214C112.188 1.996 112.037 1.835 111.744 1.835C111.393 1.835 111.129 2.063 110.958 2.507L109.293 1.599C109.738 0.549 110.655 0 111.715 0C112.368 0 112.917 0.189 113.38 0.559C113.844 0.927 114.08 1.429 114.08 2.081C114.08 2.478 113.995 2.829 113.815 3.122C113.645 3.415 113.371 3.774 113.002 4.191L112.33 4.938H114.223V6.773L109.435 6.774Z" fill="white"/>
<path d="M117.345 6.925C116.455 6.925 115.765 6.613 115.283 5.988C114.801 5.354 114.554 4.512 114.554 3.463C114.554 2.412 114.8 1.57 115.283 0.946C115.765 0.312 116.456 0 117.345 0C118.234 0 118.924 0.312 119.407 0.946C119.89 1.57 120.136 2.412 120.136 3.463C120.136 4.513 119.891 5.355 119.407 5.988C118.924 6.613 118.233 6.925 117.345 6.925ZM117.345 5.09C117.941 5.09 118.243 4.551 118.243 3.463C118.243 2.375 117.94 1.835 117.345 1.835C116.748 1.835 116.446 2.375 116.446 3.463C116.446 4.551 116.748 5.09 117.345 5.09Z" fill="white"/>
</g>
<defs>
<clipPath id="clip0_9_20">
<rect width="120.136" height="32.377" fill="white"/>
</clipPath>
</defs>
</svg>
