<svg xmlns="http://www.w3.org/2000/svg" fill="none" viewBox="0 0 107 36"><path fill="#fff" fill-rule="evenodd" d="M106.18 32.18v-7.2c.01-1.41-.27-2.8-.84-4.1a11.06 11.06 0 0 0-5.72-5.72 10.1 10.1 0 0 0-4.1-.85c-.87 0-1.72.09-2.57.26a5.3 5.3 0 0 0-2.12.96 35.6 35.6 0 0 1-.37-.27c-.25-.2-.51-.39-.8-.55a3.14 3.14 0 0 0-2.85-.1c-.9.41-1.6 1.13-2.01 2.02-.2.45-.3.93-.3 1.41v14.13c0 .51.1 1.01.3 1.47a4 4 0 0 0 2.02 2.04 3.39 3.39 0 0 0 3.9-.82 4.16 4.16 0 0 0 .98-2.68v-7.2c-.01-.5.1-.97.32-1.41a3.67 3.67 0 0 1 2.06-1.78c.46-.16.95-.24 1.43-.24a3.4 3.4 0 0 1 3.09 2.02c.2.44.3.92.3 1.4v7.2c0 .5.09 1 .26 1.47.33.9.99 1.63 1.84 2.04.43.2.9.3 1.37.3.5 0 1-.1 1.47-.3a3.9 3.9 0 0 0 2.34-3.5ZM7.3 18.08v14.14c0 .5-.1 1-.3 1.45-.4.9-1.12 1.61-2.02 2.02-.46.2-.95.3-1.45.3-.45 0-.89-.1-1.28-.3a4.17 4.17 0 0 1-1.93-2.02C.1 33.22 0 32.72 0 32.22V18.1c0-.5.1-1 .3-1.45a4.2 4.2 0 0 1 1.94-2.02c.4-.2.83-.3 1.28-.3.5 0 1 .1 1.45.3.9.4 1.61 1.12 2.02 2.02.2.45.3.95.3 1.45Zm4 6.9c.03-1.39.3-2.76.9-4.03.6-1.25 1.42-2.39 2.42-3.37.98-.97 2.14-1.75 3.4-2.3 1.28-.59 2.62-.84 4.01-.9h.3c1.34 0 2.53.27 3.88.78 1.28.5 2.46 1.36 3.62 2.37a3.57 3.57 0 0 1 1.13 2.6c0 .98-.38 1.83-1.13 2.55-.7.58-1.55.87-2.56.87a4.85 4.85 0 0 1-2.94-1.25 2.8 2.8 0 0 0-.73-.53 3.84 3.84 0 0 0-3.9.72 3.18 3.18 0 0 0-1.1 2.5v7.28c.01.97-.34 1.9-.98 2.62a3.18 3.18 0 0 1-2.5 1.1 4.04 4.04 0 0 1-3.5-2.28 3.3 3.3 0 0 1-.32-1.44v-7.29Zm31.64 10.43c.57.39 1.25.6 1.93.58.68.02 1.35-.18 1.9-.58a4.4 4.4 0 0 0 1.28-1.45l4.04-8.06 4.07 8.06c.3.58.72 1.08 1.26 1.45.54.39 1.2.6 1.86.59.7.01 1.39-.2 1.96-.59.53-.37.96-.87 1.26-1.45l6.9-13.87c.4-.78.6-1.45.6-2 .02-.97-.32-1.9-.95-2.64a3.13 3.13 0 0 0-2.52-1.13c-.86 0-1.56.25-2.1.76a6.86 6.86 0 0 0-1.37 1.84l-3.77 7.5-3.69-7.5a4.93 4.93 0 0 0-1.34-1.87c-.58-.49-1.3-.73-2.17-.73-.7 0-1.36.24-1.98.73a5.42 5.42 0 0 0-1.5 1.87l-3.73 7.5-3.78-7.5a5.03 5.03 0 0 0-1.32-1.87 3.09 3.09 0 0 0-2.1-.73 3.53 3.53 0 0 0-2.43 1.13c-.33.35-.6.75-.79 1.19a3.48 3.48 0 0 0-.15 2.38c.13.36.28.72.45 1.06l6.95 13.87c.27.6.7 1.1 1.23 1.46ZM80.5 18.09v14.13c0 .5-.1 1-.3 1.45-.4.9-1.12 1.61-2.02 2.02-.46.2-.95.3-1.46.3-.44 0-.88-.1-1.27-.3a4.16 4.16 0 0 1-1.93-2.02c-.21-.45-.32-.95-.31-1.45V18.1c0-.5.1-1 .3-1.45a4.2 4.2 0 0 1 1.94-2.02c.4-.2.83-.3 1.28-.3.5 0 1 .1 1.45.3.9.4 1.61 1.12 2.02 2.02.2.45.3.95.3 1.45Z" clip-rule="evenodd"/><path fill="#63C617" fill-rule="evenodd" d="M7.25 3.62a3.62 3.62 0 1 1-7.25 0 3.62 3.62 0 0 1 7.25 0Zm73.23 0a3.62 3.62 0 1 1-7.24 0 3.62 3.62 0 0 1 7.24 0Z" clip-rule="evenodd"/></svg>
